<?xml version="1.0" encoding="UTF-8"?>
<svg id="Layer_1" data-name="Layer 1" xmlns="http://www.w3.org/2000/svg" version="1.1" viewBox="0 0 2684.92 1080">
  <defs>
    <style>
      .cls-1 {
        fill: #e05e28;
      }

      .cls-1, .cls-2, .cls-3, .cls-4 {
        stroke-width: 0px;
      }

      .cls-2 {
        fill: #000;
      }

      .cls-3 {
        fill-rule: evenodd;
      }

      .cls-3, .cls-4 {
        fill: #fff;
      }
    </style>
  </defs>
  <g>
    <circle class="cls-1" cx="540" cy="540" r="540"/>
    <g>
      <path class="cls-4" d="M467.192,500.899c0-12.951,23.451-60.691,23.451-60.691,0,0,23.451,47.739,23.451,60.691s-10.499,23.451-23.451,23.451-23.451-10.499-23.451-23.451Z"/>
      <path class="cls-4" d="M542.402,559.427c0-12.951,23.451-60.691,23.451-60.691,0,0,23.451,47.739,23.451,60.691s-10.499,23.451-23.451,23.451-23.451-10.499-23.451-23.451Z"/>
      <path class="cls-4" d="M621.791,517.356c0-12.951,23.451-60.691,23.451-60.691,0,0,23.451,47.739,23.451,60.691s-10.499,23.451-23.451,23.451-23.451-10.499-23.451-23.451Z"/>
      <path class="cls-4" d="M625.229,248.521c6.959-61.875-41.64-107.087-94.012-107.087-43.49,0-80.116,29.288-91.297,69.208-64.279-12.18-115.483,42.963-101.657,101.236-26.627-1.751-50.448,21.535-50.448,48.232s21.642,48.339,48.338,48.339h293.161c44.192,0,80.016-35.824,80.016-80.016s-34.405-82.049-84.1-79.912Z"/>
    </g>
    <path class="cls-3" d="M619.913,703.612c30.046,1.181,61.143,25.238,82.05,45.131,10.117,7.421,13.668,13.516,10.652,18.283-9.86,16.732-26.237,25.418-49.131,26.053-19.554.543-31.465,3.034-40.138,22.876,9.27,11.094,28.627,6.999,32.466,23.23,2.891,12.223-7.699,13.149-12.567,11.741-5.896-1.705-6.715-6.704-12.131-11.129-3.583-2.928-11.778-5.961-21.851-8.013.992-1.015-33.877,34.259-18.302,57.324,5.828,8.631,16.219,1.542,18.267,8.465,1.935,6.537-3.845,8.68-12.283,8.82-6.67.11-13.665-.619-18.513-6.755-9.895-12.523-4.268-23.596-19.018-33.265-9.974-6.538-20.669,2.293-28.811,8.139-10.966,7.876-15.966,13.451-42.478,17.005,14.072-.325,25.939-.528,35.599-.606,19.679-.158,21.513,15.242,13.831,15.293-22.298.149-43.867.539-64.705-.382-14.899-.658-22.431-3.086-35.603-10.803-14.502,1.217-20.53-1.011-28.3-6.042-75.703,11.142-128.378,2.428-155.682-26.29-5.292-5.566,2.329-13.943,8.367-9.196,34.959,27.489,95.036,20.098,145.089,11.008-1.454-78.315,20.497-127.53,65.853-147.645,46.557-20.648,71.456,4.424,97.261-7.202.344-5.287-2.381-20.33,17.558-26.79,13.223-4.284,29.692-.022,32.52,20.751h0Z"/>
    <path class="cls-4" d="M437.078,571.683c-11.575-25.018-37.567-44.326-77.252-57.384-1.274-.418-128.789-41.135-181.704-14.273-10.834,5.499-18.003,13.461-21.311,23.667-2.396,7.396-2.638,14.422-.866,20.844l-34.73,31.045c-3.153,2.82-3.425,7.662-.605,10.815,1.513,1.694,3.608,2.552,5.713,2.552,1.818,0,3.641-.643,5.103-1.947l32.283-28.857c4.538,4.889,10.492,8.807,17.178,11.867l-15.237,57.445-30.904,21.804c-3.456,2.44-4.281,7.216-1.844,10.674,1.492,2.116,3.862,3.242,6.266,3.242,1.525,0,3.066-.45,4.408-1.398l33.177-23.409c1.469-1.037,2.527-2.557,2.989-4.293l15.621-58.884c4.039,1.107,8.115,1.975,12.122,2.664l-12.137,58.27c-.511,2.459.211,5.006,1.938,6.832,1.722,1.821,4.218,2.67,6.714,2.304l12.385-1.886-26.632,64.942c-1.605,3.913.267,8.385,4.181,9.989.952.389,1.935.577,2.904.577,3.015,0,5.874-1.792,7.09-4.758l31.763-77.456c1.046-2.552.638-5.471-1.067-7.639-1.706-2.172-4.439-3.261-7.174-2.839l-14.857,2.262,10.168-48.81c3.306.202,6.414.283,9.166.233,1.276,6.345,3.426,13.592,6.358,21.185l10.301,72.187c.373,2.609,2.064,4.847,4.476,5.917l54.514,24.192,9.562,62.531c.579,3.786,3.843,6.503,7.561,6.503.385,0,.774-.033,1.166-.089,4.183-.643,7.054-4.551,6.414-8.732l-10.196-66.674c-.394-2.581-2.076-4.781-4.464-5.842l-54.467-24.169-4.027-28.218c12.871,16.977,30.013,31.46,51.519,37.114,10.487,2.754,21.715,4.134,33.034,4.134,39.573-.005,80.208-16.826,93.77-50.186,8.108-19.936,7.979-40.009-.368-58.05Z"/>
    <path class="cls-4" d="M914.033,506.075c16.837-5.088,31.854-15.279,29.273-29.818-3.078-17.345-28.343-17.593-52.46-14.83-1.141-29.173-9.786-47.244-25.795-53.747-15.117-6.145-37.483-3.968-68.369,6.65-11.618,3.998-38.826,13.35-39.633,41.617-.381,13.288,2.989,28.121,5.412,36.943-10.555,4.843-19.864,10.138-27.98,15.952-11.267,8.071-15.439,16.309-12.399,24.491,4.353,11.711,32.243,14.488,43.762,14.691-1.47,24.98-34.915,59.324-67.373,80.743-5.614,3.705-7.584,8.431-5.611,15.548,6.21,22.401,49.002,68.764,103.555,85.088,17.095,5.117,34.249,7.305,50.542,7.305,31.327,0,77.518-12.478,84.186-27.899,4.442-10.273-6.972-25.615-26.813-55.173-10.029-14.94-32.682-52.21-33.256-63.025,6.424,2.566,13.362,5.062,20.844,7.728,33.289,11.871,50.188,16.314,73.054,41.218,1.136,1.236,3.183.111,2.731-1.506-15.934-57.062-33.172-103.9-53.671-131.973Z"/>
  </g>
  <g>
    <g>
      <path class="cls-2" d="M1519.709,679.149c0,47.732-29.869,79.664-91.332,79.664h-44.29v82.403h-45.324v-240.353h88.584c65.24,0,92.361,35.715,92.361,78.286ZM1472.672,678.814c0-23.698-15.449-39.488-41.202-39.488h-47.382v81.714h46.353c22.659,0,42.231-9.958,42.231-42.226Z"/>
      <path class="cls-2" d="M1590.813,841.216h-43.95v-240.353h43.95v240.353Z"/>
      <path class="cls-2" d="M1778.292,712.116v89.613c0,14.075,1.029,26.781,6.181,39.488h-44.294c-2.403-5.841-4.117-12.361-5.151-18.882-13.731,17.848-34.676,23.689-53.903,23.689-38.803,0-61.118-23.344-61.118-55.622,0-33.311,20.601-54.597,73.819-61.118l40.517-5.151v-8.924c0-20.95-6.525-27.815-31.243-27.815-22.664,0-32.277,7.21-32.622,26.092h-43.26c1.029-39.823,30.559-58.37,76.912-58.37,53.908,0,74.164,21.295,74.164,57ZM1705.158,757.779c-28.5,3.782-40.172,11.672-40.172,28.84,0,14.42,8.239,24.378,27.466,24.378,22.319,0,41.891-15.1,41.891-37.764v-19.571l-29.185,4.117Z"/>
      <path class="cls-2" d="M1807.452,847.737h42.916c2.403,14.42,13.735,26.101,40.517,26.101,31.588,0,42.92-11.337,42.92-47.387v-17.857c-13.046,16.143-32.962,24.378-51.849,24.378-46.353,0-74.848-33.647-74.848-85.831,0-50.824,27.466-92.026,77.941-92.026,21.63,0,37.769,8.589,48.756,23.698v-18.547h42.92v166.185c0,53.908-24.378,78.286-86.525,78.286-52.534,0-78.975-27.471-82.748-57ZM1935.523,744.049c0-35.715-18.542-54.597-40.172-54.597-27.471,0-42.236,22.319-42.236,57.69,0,34.672,15.109,51.16,40.862,51.16,24.033,0,41.546-19.236,41.546-54.252Z"/>
      <path class="cls-2" d="M2165.777,841.216h-43.265v-20.941c-13.391,17.168-32.277,25.747-52.878,25.747-35.706,0-60.773-20.261-60.773-62.832v-122.925h43.95v112.967c0,25.067,8.929,35.025,29.529,35.025,23.004,0,39.488-17.168,39.488-44.984v-103.008h43.95v180.949Z"/>
      <path class="cls-2" d="M2362.119,751.603v8.924h-127.727c1.374,33.302,18.542,50.47,47.382,50.47,21.285,0,35.365-10.638,43.26-25.403l35.71,18.193c-16.479,26.781-43.26,42.236-81.029,42.236-57,0-90.302-41.202-90.302-95.798,0-55.277,30.899-95.109,87.554-95.109,54.248,0,85.151,40.522,85.151,96.488ZM2234.732,730.653h82.408c-2.059-28.151-16.823-41.891-40.517-41.891-24.033,0-39.488,14.429-41.891,41.891Z"/>
    </g>
    <g>
      <path class="cls-2" d="M1320.228,439.597l30.559-27.471c18.882,20.605,41.202,34.336,75.193,34.336,29.185,0,51.504-12.706,51.504-33.647,0-20.605-9.613-30.899-63.866-39.832-54.248-9.613-81.374-30.554-81.374-71.076,0-42.571,36.739-69.697,90.647-69.697,47.382,0,78.97,19.227,98.197,43.26l-32.273,25.412c-10.987-13.74-29.185-30.219-65.58-30.219-27.815,0-44.639,10.992-44.639,30.219,0,17.513,9.613,26.092,61.118,35.016,59.059,9.958,84.811,31.933,84.811,74.168,0,44.984-36.055,75.193-99.576,75.193-40.517,0-79.66-14.765-104.722-45.664Z"/>
      <path class="cls-2" d="M1644.862,487.319c-9.958,33.311-24.378,54.942-67.983,54.942-8.929,0-17.168-1.034-23.693-2.403v-31.933c7.899.689,10.643.689,15.794.689,25.407,0,24.288-17.802,20.256-29.874-4.031-12.072-60.428-180.949-60.428-180.949h48.756l40.862,149.017,37.769-149.017h46.693l-58.025,189.529Z"/>
      <path class="cls-2" d="M1880.078,361.656v117.084h-43.95v-103.008c0-28.84-6.176-45.664-30.899-45.664-23.004,0-40.172,19.227-40.172,47.378v101.294h-43.95v-180.949h43.26v23.353c13.735-19.916,32.962-28.505,54.252-28.505,39.483,0,61.458,25.757,61.458,69.017Z"/>
      <path class="cls-2" d="M2075.899,389.127v8.924h-127.727c1.374,33.302,18.542,50.47,47.382,50.47,21.285,0,35.365-10.638,43.26-25.403l35.71,18.193c-16.479,26.781-43.26,42.236-81.029,42.236-57,0-90.302-41.202-90.302-95.798,0-55.277,30.899-95.109,87.554-95.109,54.248,0,85.151,40.522,85.151,96.488ZM1948.513,368.177h82.408c-2.059-28.151-16.823-41.891-40.517-41.891-24.033,0-39.488,14.429-41.891,41.891Z"/>
      <path class="cls-2" d="M2204.794,293.673v43.605c-5.836-.345-8.584-.345-10.987-.345-28.495,0-50.47,13.395-50.47,63.176v78.63h-43.95v-180.949h43.26v29.529c12.361-23.689,30.214-34.681,49.786-34.681,4.122,0,8.584.345,12.361,1.034Z"/>
      <path class="cls-2" d="M2214.731,485.261h42.916c2.403,14.42,13.735,26.101,40.517,26.101,31.588,0,42.92-11.337,42.92-47.387v-17.857c-13.046,16.143-32.962,24.378-51.844,24.378-46.358,0-74.853-33.647-74.853-85.831,0-50.824,27.466-92.026,77.941-92.026,21.63,0,37.769,8.589,48.756,23.698v-18.547h42.92v166.185c0,53.908-24.378,78.286-86.525,78.286-52.534,0-78.975-27.471-82.748-57ZM2342.802,381.572c0-35.715-18.542-54.597-40.172-54.597-27.471,0-42.236,22.319-42.236,57.69,0,34.672,15.109,51.16,40.862,51.16,24.033,0,41.546-19.236,41.546-54.252Z"/>
      <path class="cls-2" d="M2684.92,392.555h-96.143v-37.42h96.143v37.42Z"/>
      <path class="cls-2" d="M2516.998,487.319c-9.958,33.311-24.378,54.942-67.983,54.942-8.929,0-17.168-1.034-23.693-2.403v-31.933c7.899.689,10.643.689,15.794.689,25.407,0,24.288-17.802,20.256-29.874-4.031-12.072-60.428-180.949-60.428-180.949h48.756l40.862,149.017,37.769-149.017h46.693l-58.025,189.529Z"/>
    </g>
  </g>
</svg>